# xmcd database file
#
# Track frame offsets:
# 150
# 14744
# 29183
# 41131
# 52870
# 62795
# 74397
# 86581
# 95570
# 106216
# 118268
# 128221
# 138621
# 151893
# 167061
# 177765
# 190895
# 202036
# 213514
# 225145
# 238445
# 246886
# 258623
# 271684
#
# Disc length: 3809 seconds
#
# Revision: 0
# Processed by: cddbd v1.5.2PL0 Copyright (c) Steve Scherf et al.
# Submitted via: CD-Runner 2006.50
#
DISCID=670edf18
DTITLE=Frankie Laine - Greatest Hits - 40 Original Recordings [CD 1)
DYEAR=1900
DGENRE=Country
TTITLE0=Jealousy
TTITLE1=Jezebel
TTITLE2=Answer Me
TTITLE3=Mule Train
TTITLE4=I Believe
TTITLE5=Rose Rose I Love You
TTITLE6=The Cry Of The Wild Goose
TTITLE7=Sugarbush (with Doris Day)
TTITLE8=A Woman In Love
TTITLE9=High Noon
TTITLE10=Tell Me A Story (with Jimmy Boyd)
TTITLE11=Champion The Wonderhorse
TTITLE12=Moonlight Gambler
TTITLE13=The Kid's Last Fight
TTITLE14=Hey Joe!
TTITLE15=Cool Water
TTITLE16=Your Cheatin' Heart
TTITLE17=Where The Wind Blows
TTITLE18=Some Day
TTITLE19=Granada
TTITLE20=Settin' The Woods On Fire (with Jo Stafford)
TTITLE21=Blowing Wild
TTITLE22=Rain, Rain, Rain (with The Four Lads)
TTITLE23=The Girl In The Wood
EXTD=
EXTT0=
EXTT1=
EXTT2=
EXTT3=
EXTT4=
EXTT5=
EXTT6=
EXTT7=
EXTT8=
EXTT9=
EXTT10=
EXTT11=
EXTT12=
EXTT13=
EXTT14=
EXTT15=
EXTT16=
EXTT17=
EXTT18=
EXTT19=
EXTT20=
EXTT21=
EXTT22=
EXTT23=
PLAYORDER=
